<svg width="192" height="192" viewBox="0 0 192 192" xmlns="http://www.w3.org/2000/svg">
  <defs>
    <linearGradient id="bgGradient" x1="0%" y1="0%" x2="100%" y2="100%">
      <stop offset="0%" style="stop-color:#667eea;stop-opacity:1" />
      <stop offset="100%" style="stop-color:#764ba2;stop-opacity:1" />
    </linearGradient>
    <linearGradient id="toolGradient" x1="0%" y1="0%" x2="100%" y2="100%">
      <stop offset="0%" style="stop-color:#ffffff;stop-opacity:0.9" />
      <stop offset="100%" style="stop-color:#f8f9fa;stop-opacity:0.8" />
    </linearGradient>
    <filter id="shadow" x="-20%" y="-20%" width="140%" height="140%">
      <feDropShadow dx="2" dy="4" stdDeviation="3" flood-color="#000000" flood-opacity="0.2"/>
    </filter>
  </defs>
  
  <!-- Background Circle -->
  <circle cx="96" cy="96" r="88" fill="url(#bgGradient)" filter="url(#shadow)"/>
  
  <!-- Main Tool Container -->
  <g transform="translate(96,96)">
    
    <!-- Wrench -->
    <g transform="rotate(-15) translate(-25,-15)">
      <path d="M8 2 L8 8 L12 12 L18 6 L22 10 L16 16 L20 20 L14 26 L10 22 L6 18 L12 12 L8 8 Z" 
            fill="url(#toolGradient)" stroke="#4a5568" stroke-width="1.5" stroke-linejoin="round"/>
      <circle cx="15" cy="9" r="2" fill="#4a5568"/>
    </g>
    
    <!-- Gear -->
    <g transform="rotate(20) translate(15,-20)">
      <path d="M12 2 L14 6 L18 6 L20 2 L24 4 L22 8 L26 10 L24 14 L20 16 L18 20 L14 20 L12 16 L8 14 L6 10 L10 8 L8 4 Z" 
            fill="url(#toolGradient)" stroke="#4a5568" stroke-width="1.5"/>
      <circle cx="16" cy="12" r="4" fill="none" stroke="#4a5568" stroke-width="2"/>
      <circle cx="16" cy="12" r="2" fill="#4a5568"/>
    </g>
    
    <!-- Screwdriver -->
    <g transform="rotate(45) translate(-10,25)">
      <rect x="0" y="0" width="3" height="20" fill="url(#toolGradient)" stroke="#4a5568" stroke-width="1"/>
      <rect x="-1" y="18" width="5" height="4" fill="#e53e3e" stroke="#c53030" stroke-width="1"/>
    </g>
    
    <!-- Hammer Head -->
    <g transform="rotate(-45) translate(20,5)">
      <rect x="0" y="0" width="12" height="6" rx="1" fill="url(#toolGradient)" stroke="#4a5568" stroke-width="1.5"/>
      <rect x="-8" y="2" width="8" height="2" fill="#8b4513" stroke="#654321" stroke-width="1"/>
    </g>
    
  </g>
  
  <!-- Center Highlight -->
  <circle cx="96" cy="96" r="12" fill="#ffffff" opacity="0.3"/>
  <circle cx="96" cy="96" r="8" fill="#ffffff" opacity="0.5"/>
  
</svg>